<svg width="208" height="379" viewBox="0 0 208 379" fill="none" xmlns="http://www.w3.org/2000/svg">
<path d="M8.64 243.096C10.112 236.056 11.52 229.112 12.864 222.264C13.44 219.384 14.016 216.376 14.592 213.24C15.168 210.104 15.712 207.032 16.224 204.024C16.8 200.952 17.28 198.008 17.664 195.192C18.112 192.312 18.496 189.688 18.816 187.32C17.344 187.128 15.84 187.064 14.304 187.128C12.832 187.192 11.36 187 9.888 186.552C9.952 185.528 9.984 184.344 9.984 183C9.984 181.656 10.016 180.312 10.08 178.968C10.144 177.496 10.208 175.928 10.272 174.264C11.936 174.392 13.6 174.488 15.264 174.552C16.928 174.616 18.592 174.648 20.256 174.648C23.52 174.648 26.656 174.584 29.664 174.456C32.736 174.264 35.552 174.072 38.112 173.88C40.736 173.624 43.296 173.336 45.792 173.016L44.736 178.2C44.416 179.672 44.096 181.176 43.776 182.712C43.52 184.248 43.264 185.56 43.008 186.648C41.6 187.032 40.16 187.32 38.688 187.512C37.28 187.64 35.872 187.832 34.464 188.088C34.016 190.264 33.536 192.696 33.024 195.384C32.512 198.008 32 200.76 31.488 203.64C31.04 206.456 30.592 209.336 30.144 212.28C29.696 215.224 29.248 218.04 28.8 220.728C27.776 227.064 26.816 233.624 25.92 240.408L8.64 243.096ZM51.1013 241.08C50.5253 241.08 49.3733 241.176 47.6453 241.368C45.9813 241.496 44.2533 241.688 42.4613 241.944C40.6693 242.136 39.0373 242.328 37.5653 242.52C36.1573 242.712 35.3893 242.84 35.2613 242.904C35.9013 240.152 36.5413 237.112 37.1813 233.784C37.8853 230.392 38.5893 226.872 39.2933 223.224C39.9973 219.512 40.6693 215.768 41.3093 211.992C41.9493 208.216 42.5573 204.568 43.1333 201.048C44.4773 192.856 45.8213 184.44 47.1653 175.8L62.1413 173.4C60.6693 181.976 59.2293 190.392 57.8213 198.648C57.2453 202.168 56.6373 205.816 55.9973 209.592C55.4213 213.368 54.8133 217.112 54.1733 220.824C53.5973 224.536 53.0533 228.152 52.5413 231.672C52.0293 235.128 51.5493 238.264 51.1013 241.08ZM80.6835 239.928C78.6995 239.928 76.5875 239.992 74.3475 240.12C72.1715 240.248 69.9635 240.44 67.7235 240.696C65.4835 240.952 63.2755 241.304 61.0995 241.752C58.9875 242.136 57.0675 242.616 55.3395 243.192C55.7235 240.312 56.1715 237.112 56.6835 233.592C57.1955 230.072 57.7715 226.424 58.4115 222.648C59.1155 218.872 59.7875 215.064 60.4275 211.224C61.1315 207.384 61.8355 203.704 62.5395 200.184C64.1395 191.8 65.8355 183.256 67.6275 174.552L84.4275 172.344C82.6995 179.768 81.0355 187 79.4355 194.04C78.7315 197.048 78.0275 200.184 77.3235 203.448C76.6195 206.648 75.9475 209.784 75.3075 212.856C74.6675 215.928 74.0915 218.904 73.5795 221.784C73.0675 224.664 72.6515 227.224 72.3315 229.464C73.9315 229.336 75.6275 229.272 77.4195 229.272C79.2755 229.208 80.9075 229.176 82.3155 229.176C82.3795 230.392 82.4755 231.608 82.6035 232.824C82.7315 233.976 82.8595 235.032 82.9875 235.992C83.1795 236.952 83.3075 237.816 83.3715 238.584C83.4995 239.288 83.5955 239.768 83.6595 240.024C83.1475 240.024 82.6355 240.024 82.1235 240.024C81.6755 239.96 81.1955 239.928 80.6835 239.928ZM91.7963 243.096C93.2683 236.056 94.6763 229.112 96.0203 222.264C96.5963 219.384 97.1723 216.376 97.7483 213.24C98.3243 210.104 98.8683 207.032 99.3803 204.024C99.9563 200.952 100.436 198.008 100.82 195.192C101.268 192.312 101.652 189.688 101.972 187.32C100.5 187.128 98.9963 187.064 97.4603 187.128C95.9883 187.192 94.5163 187 93.0443 186.552C93.1083 185.528 93.1403 184.344 93.1403 183C93.1403 181.656 93.1723 180.312 93.2363 178.968C93.3003 177.496 93.3643 175.928 93.4283 174.264C95.0923 174.392 96.7563 174.488 98.4203 174.552C100.084 174.616 101.748 174.648 103.412 174.648C106.676 174.648 109.812 174.584 112.82 174.456C115.892 174.264 118.708 174.072 121.268 173.88C123.892 173.624 126.452 173.336 128.948 173.016L127.892 178.2C127.572 179.672 127.252 181.176 126.932 182.712C126.676 184.248 126.42 185.56 126.164 186.648C124.756 187.032 123.316 187.32 121.844 187.512C120.436 187.64 119.028 187.832 117.62 188.088C117.172 190.264 116.692 192.696 116.18 195.384C115.668 198.008 115.156 200.76 114.644 203.64C114.196 206.456 113.748 209.336 113.3 212.28C112.852 215.224 112.404 218.04 111.956 220.728C110.932 227.064 109.972 233.624 109.076 240.408L91.7963 243.096ZM118.706 243.096L131.282 174.84L161.618 172.248C161.17 173.656 160.786 175.096 160.466 176.568C160.146 177.784 159.826 179.064 159.506 180.408C159.25 181.688 159.026 182.84 158.834 183.864C158.194 183.928 157.266 183.992 156.05 184.056C154.898 184.056 153.65 184.088 152.306 184.152C150.962 184.152 149.586 184.152 148.178 184.152C146.834 184.152 145.65 184.152 144.626 184.152L141.266 201.336C143.25 201.208 145.106 201.112 146.834 201.048C148.242 200.984 149.682 200.952 151.154 200.952C152.626 200.952 153.714 200.92 154.418 200.856C154.162 202.648 153.906 204.408 153.65 206.136C153.458 207.864 153.202 209.624 152.882 211.416C152.242 211.48 151.186 211.544 149.714 211.608C148.306 211.608 146.866 211.64 145.394 211.704C143.73 211.768 141.906 211.832 139.922 211.896L136.658 229.56L150.674 227.352L149.714 238.296L118.706 243.096ZM199.52 193.944C199.52 197.272 199.04 200.824 198.08 204.6C197.12 208.312 195.776 212.024 194.048 215.736C192.32 219.384 190.176 222.904 187.616 226.296C185.12 229.624 182.272 232.568 179.072 235.128C175.872 237.624 172.352 239.64 168.512 241.176C164.736 242.712 160.704 243.48 156.416 243.48C155.52 243.48 154.624 243.416 153.728 243.288C152.832 243.224 151.936 243.128 151.04 243C152.768 234.168 154.464 225.56 156.128 217.176C156.768 213.656 157.44 210.008 158.144 206.232C158.848 202.392 159.52 198.616 160.16 194.904C160.8 191.192 161.408 187.64 161.984 184.248C162.624 180.856 163.136 177.784 163.52 175.032C166.272 174.52 169.056 174.04 171.872 173.592C174.688 173.144 177.568 172.92 180.512 172.92C183.968 172.92 186.88 173.464 189.248 174.552C191.68 175.64 193.632 177.144 195.104 179.064C196.64 180.984 197.76 183.224 198.464 185.784C199.168 188.344 199.52 191.064 199.52 193.944ZM176.864 186.456C176.16 190.232 175.424 193.848 174.656 197.304C173.888 200.76 173.12 204.248 172.352 207.768C171.584 211.288 170.816 214.968 170.048 218.808C169.28 222.648 168.544 226.84 167.84 231.384C169.376 230.36 170.848 228.984 172.256 227.256C173.728 225.464 175.104 223.416 176.384 221.112C177.664 218.808 178.816 216.376 179.84 213.816C180.928 211.256 181.856 208.76 182.624 206.328C183.392 203.896 183.968 201.624 184.352 199.512C184.8 197.4 185.024 195.576 185.024 194.04C185.024 191.672 184.352 189.816 183.008 188.472C181.728 187.128 179.68 186.456 176.864 186.456Z" fill="#DD5B5E"/>
<path d="M15.744 352.928C13.3547 353.355 10.752 353.867 7.936 354.464C5.12 355.061 2.64533 355.616 0.512 356.128C1.536 352.459 2.51733 348.363 3.456 343.84C4.48 339.232 5.46133 334.411 6.4 329.376C7.424 324.341 8.36267 319.264 9.216 314.144C10.1547 308.939 11.0507 303.947 11.904 299.168C13.696 287.819 15.488 276.085 17.28 263.968L60.16 261.792L56.448 277.536H36.352L32.384 300.32C35.0293 300.235 37.5467 300.192 39.936 300.192C41.8987 300.192 43.904 300.192 45.952 300.192C48 300.192 49.5787 300.149 50.688 300.064C50.432 302.453 50.0907 304.8 49.664 307.104C49.3227 309.408 48.9813 311.712 48.64 314.016C47.5307 314.016 45.952 314.016 43.904 314.016C41.856 313.931 39.7227 313.845 37.504 313.76C35.3707 313.675 32.9387 313.589 30.208 313.504L24.32 351.264C21.4187 351.776 18.56 352.331 15.744 352.928ZM63.849 353.44C63.081 353.44 61.5877 353.568 59.369 353.824C57.1503 353.995 54.8463 354.251 52.457 354.592C50.0677 354.848 47.8917 355.104 45.929 355.36C44.0517 355.616 43.0277 355.787 42.857 355.872C43.881 352.203 44.905 348.149 45.929 343.712C46.953 339.189 47.977 334.496 49.001 329.632C50.1103 324.683 51.1343 319.691 52.073 314.656C53.097 309.621 54.0783 304.757 55.017 300.064C57.1503 289.141 59.241 277.92 61.289 266.4L81.257 263.2C79.0383 274.635 76.8197 285.856 74.601 296.864C73.6623 301.557 72.681 306.421 71.657 311.456C70.7183 316.491 69.7797 321.483 68.841 326.432C67.9877 331.381 67.0917 336.203 66.153 340.896C65.2997 345.504 64.5317 349.685 63.849 353.44ZM125.954 324.384C125.954 329.163 125.015 333.515 123.138 337.44C121.346 341.28 118.871 344.608 115.714 347.424C112.642 350.24 108.973 352.416 104.706 353.952C100.525 355.488 96.002 356.256 91.138 356.256C87.7247 356.256 84.3113 355.36 80.898 353.568C77.4847 351.691 74.1993 348.747 71.042 344.736L80.514 326.176C81.1113 327.285 82.0073 328.437 83.202 329.632C84.3967 330.741 85.7193 331.723 87.17 332.576C88.706 333.429 90.1993 334.155 91.65 334.752C93.186 335.264 94.5513 335.52 95.746 335.52C96.77 335.52 97.8367 335.349 98.946 335.008C100.055 334.667 101.079 334.155 102.018 333.472C102.957 332.789 103.682 332.021 104.194 331.168C104.791 330.229 105.09 329.163 105.09 327.968C105.09 325.92 104.407 324.043 103.042 322.336C101.762 320.544 100.141 318.88 98.178 317.344C96.2153 315.723 94.082 314.101 91.778 312.48C89.474 310.859 87.3407 309.152 85.378 307.36C83.5007 305.568 81.8793 303.563 80.514 301.344C79.1487 299.125 78.466 296.651 78.466 293.92C78.466 289.483 79.7887 285.344 82.434 281.504C85.0793 277.664 88.3647 274.379 92.29 271.648C96.3007 268.832 100.653 266.613 105.346 264.992C110.039 263.371 114.477 262.56 118.658 262.56C120.962 262.56 123.138 262.859 125.186 263.456C127.234 263.968 128.983 264.864 130.434 266.144C131.97 267.339 133.165 268.875 134.018 270.752C134.957 272.629 135.426 274.976 135.426 277.792C135.426 278.987 135.298 280.181 135.042 281.376C134.871 282.571 134.701 283.851 134.53 285.216L115.97 290.592C116.141 289.909 116.269 289.227 116.354 288.544C116.525 287.861 116.61 287.179 116.61 286.496C116.61 283.936 116.141 282.101 115.202 280.992C114.349 279.797 113.197 279.2 111.746 279.2C111.063 279.2 110.21 279.456 109.186 279.968C108.247 280.48 107.266 281.163 106.242 282.016C105.303 282.784 104.493 283.723 103.81 284.832C103.127 285.941 102.786 287.136 102.786 288.416C102.786 290.464 103.341 292.171 104.45 293.536C105.645 294.901 107.095 296.181 108.802 297.376C110.509 298.571 112.343 299.808 114.306 301.088C116.354 302.283 118.231 303.861 119.938 305.824C121.645 307.787 123.053 310.261 124.162 313.248C125.357 316.149 125.954 319.861 125.954 324.384ZM125.402 356.256C127.621 344.48 129.797 332.917 131.93 321.568C132.698 316.789 133.551 311.84 134.49 306.72C135.429 301.515 136.325 296.395 137.178 291.36C138.031 286.325 138.842 281.461 139.61 276.768C140.378 271.989 141.061 267.637 141.658 263.712L162.394 262.304C160.943 268.277 159.493 274.507 158.042 280.992C156.677 287.477 155.397 293.792 154.202 299.936L166.874 298.528C168.069 292.469 169.135 286.624 170.074 280.992C171.013 275.275 172.25 269.387 173.786 263.328C175.749 262.987 177.925 262.731 180.314 262.56C182.703 262.304 184.922 262.091 186.97 261.92C189.018 261.749 190.725 261.621 192.09 261.536C193.541 261.365 194.266 261.28 194.266 261.28C193.071 265.12 191.919 269.344 190.81 273.952C189.786 278.475 188.762 283.211 187.738 288.16C186.714 293.024 185.733 297.973 184.794 303.008C183.855 308.043 183.002 312.821 182.234 317.344C180.357 328.181 178.607 339.275 176.986 350.624L157.018 352.928C158.127 347.808 159.109 342.816 159.962 337.952C160.815 333.856 161.669 329.589 162.522 325.152C163.461 320.715 164.186 316.917 164.698 313.76L152.282 314.912C151.685 318.155 150.959 321.909 150.106 326.176C149.338 330.443 148.613 334.496 147.93 338.336C146.991 342.944 146.053 347.552 145.114 352.16L125.402 356.256Z" fill="#DD5B5E"/>
<path d="M198.888 81.571L128.907 41.863C124.328 39.2644 116.961 39.304 112.453 41.9516L12.1651 100.856C7.65747 103.504 7.71597 107.757 12.2957 110.355L82.2761 150.064C86.8559 152.662 94.2227 152.622 98.7303 149.975L199.018 91.0701C203.526 88.4225 203.468 84.1697 198.888 81.571Z" fill="white" stroke="#DD5B5E" stroke-width="9"/>
<path d="M119.3 84.0418C125.108 88.1665 128.32 94.3275 127.289 99.3104L127.267 99.4206C127.178 99.8536 127.906 100.19 128.619 100.045V100.045C130.271 99.7151 132.993 99.5329 135.432 99.5934C142.288 99.7758 148.563 100.717 149.623 101.733C149.799 101.897 149.759 102.171 149.476 102.632C149.112 103.266 149.017 103.337 147.069 104.465C145.391 105.436 144.796 105.718 143.578 106.126C139.638 107.435 136.198 107.844 131.78 107.535V107.535C131.321 107.501 130.937 107.737 131.027 107.999L131.036 108.028C131.336 108.857 131.272 110.539 130.922 111.509C129.846 114.388 125.221 117.958 122.092 118.313C121.482 118.384 121.238 118.353 120.764 118.11C117.861 116.673 116.188 108.212 118.295 105.77V105.77C118.482 105.554 118.181 105.304 117.764 105.33L116.966 105.381C114.623 105.531 110.097 105.472 107.78 105.247C101.547 104.642 95.3113 103.098 90.6858 100.998C88.5567 100.022 85.3946 98.0458 84.0099 96.8269C80.2354 93.4979 78.2889 89.6121 78.4018 85.6938C78.4909 83.3085 79.2178 81.3679 80.6634 79.7008C81.2173 79.0824 81.3797 78.9572 82.0698 78.7297C85.1426 77.6558 90.7905 77.0334 95.6549 77.2251C105.086 77.5929 113.736 80.0889 119.3 84.0418ZM95.0053 82.63C94.016 82.5133 92.743 82.7494 91.9716 83.1798C90.0096 84.3 91.1931 86.3087 93.9308 86.5258C96.0175 86.6805 97.8179 85.7797 97.7876 84.5908C97.7711 83.582 96.6989 82.8243 95.0053 82.63Z" fill="#DD5B5E"/>
<path d="M198.888 74.305L128.907 34.5969C124.328 31.9983 116.961 32.038 112.453 34.6855L12.1651 93.5904C7.65747 96.2379 7.71597 100.491 12.2957 103.089L82.2761 142.797C86.8559 145.396 94.2227 145.356 98.7303 142.709L199.018 83.8041C203.526 81.1565 203.468 76.9036 198.888 74.305Z" fill="white" stroke="#DD5B5E" stroke-width="9"/>
<path d="M119.3 76.7758C125.108 80.9005 128.32 87.0615 127.289 92.0444L127.267 92.1545C127.178 92.5875 127.906 92.9236 128.619 92.7788V92.7788C130.271 92.4491 132.993 92.2668 135.432 92.3274C142.288 92.5098 148.563 93.4508 149.623 94.4669C149.799 94.6313 149.759 94.9046 149.476 95.3664C149.112 96.0002 149.017 96.0705 147.069 97.1985C145.391 98.1698 144.796 98.4517 143.578 98.8595C139.638 100.169 136.198 100.578 131.78 100.269V100.269C131.321 100.235 130.937 100.471 131.027 100.733L131.036 100.762C131.336 101.591 131.272 103.273 130.922 104.243C129.846 107.122 125.221 110.692 122.092 111.047C121.482 111.117 121.238 111.087 120.764 110.844C117.861 109.407 116.188 100.946 118.295 98.5043V98.5043C118.482 98.2879 118.181 98.038 117.764 98.0642L116.966 98.1145C114.623 98.2647 110.097 98.2061 107.78 97.9809C101.547 97.3761 95.3113 95.8323 90.6858 93.7321C88.5567 92.7561 85.3946 90.7798 84.0099 89.5608C80.2354 86.2319 78.2889 82.346 78.4018 78.4278C78.4909 76.0424 79.2178 74.1019 80.6634 72.4347C81.2173 71.8163 81.3797 71.6912 82.0698 71.4636C85.1426 70.3898 90.7905 69.7673 95.6549 69.9591C105.086 70.3269 113.736 72.8228 119.3 76.7758ZM95.0053 75.364C94.016 75.2472 92.743 75.4834 91.9716 75.9138C90.0096 77.034 91.1931 79.0426 93.9308 79.2597C96.0175 79.4145 97.8179 78.5136 97.7876 77.3247C97.7711 76.3159 96.6989 75.5583 95.0053 75.364Z" fill="#DD5B5E"/>
<path d="M198.888 67.0389L128.907 27.3309C124.328 24.7323 116.961 24.7719 112.453 27.4195L12.1651 86.3243C7.65747 88.9719 7.71597 93.2248 12.2957 95.8234L82.2761 135.531C86.8559 138.13 94.2227 138.09 98.7303 135.443L199.018 76.538C203.526 73.8904 203.468 69.6376 198.888 67.0389Z" fill="white" stroke="#DD5B5E" stroke-width="9"/>
<path d="M119.3 69.5097C125.108 73.6344 128.32 79.7954 127.289 84.7783L127.267 84.8885C127.178 85.3215 127.906 85.6576 128.619 85.5128V85.5128C130.271 85.1831 132.993 85.0008 135.432 85.0614C142.288 85.2437 148.563 86.1847 149.623 87.2009C149.799 87.3652 149.759 87.6386 149.476 88.1004C149.112 88.7341 149.017 88.8045 147.069 89.9325C145.391 90.9038 144.796 91.1857 143.578 91.5935C139.638 92.9028 136.198 93.3123 131.78 93.003V93.003C131.321 92.9686 130.937 93.2046 131.027 93.4671L131.036 93.4959C131.336 94.325 131.272 96.007 130.922 96.9769C129.846 99.856 125.221 103.426 122.092 103.781C121.482 103.851 121.238 103.821 120.764 103.578C117.861 102.141 116.188 93.68 118.295 91.2383V91.2383C118.482 91.0218 118.181 90.772 117.764 90.7982L116.966 90.8485C114.623 90.9987 110.097 90.9401 107.78 90.7149C101.547 90.11 95.3113 88.5663 90.6858 86.4661C88.5567 85.4901 85.3946 83.5137 84.0099 82.2948C80.2354 78.9659 78.2889 75.08 78.4018 71.1618C78.4909 68.7764 79.2178 66.8358 80.6634 65.1687C81.2173 64.5503 81.3797 64.4252 82.0698 64.1976C85.1426 63.1238 90.7905 62.5013 95.6549 62.693C105.086 63.0609 113.736 65.5568 119.3 69.5097ZM95.0053 68.098C94.016 67.9812 92.743 68.2173 91.9716 68.6477C90.0096 69.7679 91.1931 71.7766 93.9308 71.9937C96.0175 72.1484 97.8179 71.2476 97.7876 70.0587C97.7711 69.0499 96.6989 68.2922 95.0053 68.098Z" fill="#DD5B5E"/>
<path d="M198.888 59.7729L128.907 20.0648C124.328 17.4662 116.961 17.5059 112.453 20.1534L12.1651 79.0583C7.65747 81.7058 7.71597 85.9587 12.2957 88.5573L82.2761 128.265C86.8559 130.864 94.2227 130.824 98.7303 128.177L199.018 69.272C203.526 66.6244 203.468 62.3715 198.888 59.7729Z" fill="white" stroke="#DD5B5E" stroke-width="9"/>
<path d="M119.3 62.2437C125.108 66.3684 128.32 72.5294 127.289 77.5123L127.267 77.6224C127.178 78.0555 127.906 78.3916 128.619 78.2467V78.2467C130.271 77.917 132.993 77.7348 135.432 77.7953C142.288 77.9777 148.563 78.9187 149.623 79.9348C149.799 80.0992 149.759 80.3726 149.476 80.8343C149.112 81.4681 149.017 81.5384 147.069 82.6664C145.391 83.6377 144.796 83.9197 143.578 84.3274C139.638 85.6367 136.198 86.0463 131.78 85.7369V85.7369C131.321 85.7026 130.937 85.9386 131.027 86.201L131.036 86.2298C131.336 87.059 131.272 88.7409 130.922 89.7108C129.846 92.5899 125.221 96.1601 122.092 96.5146C121.482 96.5854 121.238 96.5545 120.764 96.3123C117.861 94.8753 116.188 86.414 118.295 83.9722V83.9722C118.482 83.7558 118.181 83.5059 117.764 83.5321L116.966 83.5824C114.623 83.7326 110.097 83.674 107.78 83.4489C101.547 82.844 95.3113 81.3002 90.6858 79.2001C88.5567 78.224 85.3946 76.2477 84.0099 75.0288C80.2354 71.6998 78.2889 67.814 78.4018 63.8957C78.4909 61.5103 79.2178 59.5698 80.6634 57.9026C81.2173 57.2843 81.3797 57.1591 82.0698 56.9315C85.1426 55.8577 90.7905 55.2353 95.6549 55.427C105.086 55.7948 113.736 58.2908 119.3 62.2437ZM95.0053 60.8319C94.016 60.7151 92.743 60.9513 91.9716 61.3817C90.0096 62.5019 91.1931 64.5106 93.9308 64.7276C96.0175 64.8824 97.8179 63.9816 97.7876 62.7927C97.7711 61.7838 96.6989 61.0262 95.0053 60.8319Z" fill="#DD5B5E"/>
<path d="M198.888 52.5068L128.907 12.7988C124.328 10.2002 116.961 10.2398 112.453 12.8874L12.1651 71.7922C7.65747 74.4398 7.71597 78.6926 12.2957 81.2913L82.2761 120.999C86.8559 123.598 94.2227 123.558 98.7303 120.911L199.018 62.0059C203.526 59.3583 203.468 55.1055 198.888 52.5068Z" fill="white" stroke="#DD5B5E" stroke-width="9"/>
<path d="M119.3 54.9776C125.108 59.1023 128.32 65.2633 127.289 70.2462L127.267 70.3564C127.178 70.7894 127.906 71.1255 128.619 70.9807V70.9807C130.271 70.651 132.993 70.4687 135.432 70.5293C142.288 70.7116 148.563 71.6526 149.623 72.6687C149.799 72.8331 149.759 73.1065 149.476 73.5683C149.112 74.202 149.017 74.2724 147.069 75.4004C145.391 76.3717 144.796 76.6536 143.578 77.0614C139.638 78.3707 136.198 78.7802 131.78 78.4709V78.4709C131.321 78.4365 130.937 78.6725 131.027 78.935L131.036 78.9638C131.336 79.7929 131.272 81.4748 130.922 82.4448C129.846 85.3239 125.221 88.894 122.092 89.2486C121.482 89.3193 121.238 89.2884 120.764 89.0462C117.861 87.6093 116.188 79.1479 118.295 76.7062V76.7062C118.482 76.4897 118.181 76.2399 117.764 76.2661L116.966 76.3163C114.623 76.4666 110.097 76.408 107.78 76.1828C101.547 75.5779 95.3113 74.0342 90.6858 71.934C88.5567 70.958 85.3946 68.9816 84.0099 67.7627C80.2354 64.4338 78.2889 60.5479 78.4018 56.6297C78.4909 54.2443 79.2178 52.3037 80.6634 50.6366C81.2173 50.0182 81.3797 49.8931 82.0698 49.6655C85.1426 48.5917 90.7905 47.9692 95.6549 48.1609C105.086 48.5288 113.736 51.0247 119.3 54.9776ZM95.0053 53.5659C94.016 53.4491 92.743 53.6852 91.9716 54.1156C90.0096 55.2358 91.1931 57.2445 93.9308 57.4616C96.0175 57.6163 97.8179 56.7155 97.7876 55.5266C97.7711 54.5178 96.6989 53.7601 95.0053 53.5659Z" fill="#DD5B5E"/>
<path d="M198.888 45.2408L128.907 5.53274C124.328 2.9341 116.961 2.97377 112.453 5.62133L12.1651 64.5262C7.65747 67.1737 7.71597 71.4266 12.2957 74.0252L82.2761 113.733C86.8559 116.332 94.2227 116.292 98.7303 113.645L199.018 54.7398C203.526 52.0923 203.468 47.8394 198.888 45.2408Z" fill="white" stroke="#DD5B5E" stroke-width="9"/>
<path d="M119.3 47.7116C125.108 51.8363 128.32 57.9973 127.289 62.9802L127.267 63.0903C127.178 63.5234 127.906 63.8595 128.619 63.7146V63.7146C130.271 63.3849 132.993 63.2027 135.432 63.2632C142.288 63.4456 148.563 64.3866 149.623 65.4027C149.799 65.5671 149.759 65.8405 149.476 66.3022C149.112 66.936 149.017 67.0063 147.069 68.1343C145.391 69.1056 144.796 69.3876 143.578 69.7953C139.638 71.1046 136.198 71.5142 131.78 71.2048V71.2048C131.321 71.1705 130.937 71.4064 131.027 71.6689L131.036 71.6977C131.336 72.5269 131.272 74.2088 130.922 75.1787C129.846 78.0578 125.221 81.628 122.092 81.9825C121.482 82.0533 121.238 82.0224 120.764 81.7802C117.861 80.3432 116.188 71.8819 118.295 69.4401V69.4401C118.482 69.2237 118.181 68.9738 117.764 69L116.966 69.0503C114.623 69.2005 110.097 69.1419 107.78 68.9167C101.547 68.3119 95.3113 66.7681 90.6858 64.668C88.5567 63.6919 85.3946 61.7156 84.0099 60.4967C80.2354 57.1677 78.2889 53.2819 78.4018 49.3636C78.4909 46.9782 79.2178 45.0377 80.6634 43.3705C81.2173 42.7521 81.3797 42.627 82.0698 42.3994C85.1426 41.3256 90.7905 40.7031 95.6549 40.8949C105.086 41.2627 113.736 43.7587 119.3 47.7116ZM95.0053 46.2998C94.016 46.183 92.743 46.4192 91.9716 46.8496C90.0096 47.9698 91.1931 49.9785 93.9308 50.1955C96.0175 50.3503 97.8179 49.4495 97.7876 48.2606C97.7711 47.2517 96.6989 46.4941 95.0053 46.2998Z" fill="#DD5B5E"/>
</svg>
